<mxfile host="app.diagrams.net" modified="2023-04-21T19:38:33.580Z" agent="Mozilla/5.0 (Macintosh; Intel Mac OS X 10_15_7) AppleWebKit/537.36 (KHTML, like Gecko) Chrome/112.0.0.0 Safari/537.36" etag="Mb_bjx5dv7jydktZuBvC" version="21.2.1" type="github">
  <diagram name="Page-1" id="2YBvvXClWsGukQMizWep">
    <mxGraphModel dx="1194" dy="741" grid="1" gridSize="10" guides="1" tooltips="1" connect="1" arrows="1" fold="1" page="1" pageScale="1" pageWidth="850" pageHeight="1100" math="0" shadow="0">
      <root>
        <mxCell id="0" />
        <mxCell id="1" parent="0" />
        <mxCell id="R4cRmpyerJcZYyLZYaJI-20" value=":Frontend" style="shape=umlLifeline;perimeter=lifelinePerimeter;whiteSpace=wrap;html=1;container=0;dropTarget=0;collapsible=0;recursiveResize=0;outlineConnect=0;portConstraint=eastwest;newEdgeStyle={&quot;edgeStyle&quot;:&quot;elbowEdgeStyle&quot;,&quot;elbow&quot;:&quot;vertical&quot;,&quot;curved&quot;:0,&quot;rounded&quot;:0};" parent="1" vertex="1">
          <mxGeometry x="151" y="80" width="100" height="240" as="geometry" />
        </mxCell>
        <mxCell id="R4cRmpyerJcZYyLZYaJI-21" value="" style="html=1;points=[];perimeter=orthogonalPerimeter;outlineConnect=0;targetShapes=umlLifeline;portConstraint=eastwest;newEdgeStyle={&quot;edgeStyle&quot;:&quot;elbowEdgeStyle&quot;,&quot;elbow&quot;:&quot;vertical&quot;,&quot;curved&quot;:0,&quot;rounded&quot;:0};" parent="R4cRmpyerJcZYyLZYaJI-20" vertex="1">
          <mxGeometry x="45" y="70" width="10" height="170" as="geometry" />
        </mxCell>
        <mxCell id="R4cRmpyerJcZYyLZYaJI-22" value="dispatch" style="html=1;verticalAlign=bottom;startArrow=oval;endArrow=block;startSize=8;edgeStyle=elbowEdgeStyle;elbow=vertical;curved=0;rounded=0;" parent="R4cRmpyerJcZYyLZYaJI-20" target="R4cRmpyerJcZYyLZYaJI-21" edge="1">
          <mxGeometry relative="1" as="geometry">
            <mxPoint x="-15" y="70" as="sourcePoint" />
          </mxGeometry>
        </mxCell>
        <mxCell id="R4cRmpyerJcZYyLZYaJI-23" value="" style="html=1;points=[];perimeter=orthogonalPerimeter;outlineConnect=0;targetShapes=umlLifeline;portConstraint=eastwest;newEdgeStyle={&quot;edgeStyle&quot;:&quot;elbowEdgeStyle&quot;,&quot;elbow&quot;:&quot;vertical&quot;,&quot;curved&quot;:0,&quot;rounded&quot;:0};" parent="R4cRmpyerJcZYyLZYaJI-20" vertex="1">
          <mxGeometry x="50" y="120" width="10" height="80" as="geometry" />
        </mxCell>
        <mxCell id="R4cRmpyerJcZYyLZYaJI-24" value=":Backend" style="shape=umlLifeline;perimeter=lifelinePerimeter;whiteSpace=wrap;html=1;container=0;dropTarget=0;collapsible=0;recursiveResize=0;outlineConnect=0;portConstraint=eastwest;newEdgeStyle={&quot;edgeStyle&quot;:&quot;elbowEdgeStyle&quot;,&quot;elbow&quot;:&quot;vertical&quot;,&quot;curved&quot;:0,&quot;rounded&quot;:0};" parent="1" vertex="1">
          <mxGeometry x="561" y="80" width="100" height="240" as="geometry" />
        </mxCell>
        <mxCell id="R4cRmpyerJcZYyLZYaJI-25" value="" style="html=1;points=[];perimeter=orthogonalPerimeter;outlineConnect=0;targetShapes=umlLifeline;portConstraint=eastwest;newEdgeStyle={&quot;edgeStyle&quot;:&quot;elbowEdgeStyle&quot;,&quot;elbow&quot;:&quot;vertical&quot;,&quot;curved&quot;:0,&quot;rounded&quot;:0};" parent="R4cRmpyerJcZYyLZYaJI-24" vertex="1">
          <mxGeometry x="45" y="60" width="10" height="180" as="geometry" />
        </mxCell>
        <mxCell id="R4cRmpyerJcZYyLZYaJI-26" value="login" style="html=1;verticalAlign=bottom;endArrow=block;edgeStyle=elbowEdgeStyle;elbow=vertical;curved=0;rounded=0;" parent="1" source="R4cRmpyerJcZYyLZYaJI-21" target="R4cRmpyerJcZYyLZYaJI-25" edge="1">
          <mxGeometry relative="1" as="geometry">
            <mxPoint x="306" y="170" as="sourcePoint" />
            <Array as="points">
              <mxPoint x="291" y="160" />
            </Array>
          </mxGeometry>
        </mxCell>
        <mxCell id="R4cRmpyerJcZYyLZYaJI-28" value=":Frontend" style="shape=umlLifeline;perimeter=lifelinePerimeter;whiteSpace=wrap;html=1;container=0;dropTarget=0;collapsible=0;recursiveResize=0;outlineConnect=0;portConstraint=eastwest;newEdgeStyle={&quot;edgeStyle&quot;:&quot;elbowEdgeStyle&quot;,&quot;elbow&quot;:&quot;vertical&quot;,&quot;curved&quot;:0,&quot;rounded&quot;:0};" parent="1" vertex="1">
          <mxGeometry x="700" y="40" width="100" height="630" as="geometry" />
        </mxCell>
        <mxCell id="R4cRmpyerJcZYyLZYaJI-29" value="" style="html=1;points=[];perimeter=orthogonalPerimeter;outlineConnect=0;targetShapes=umlLifeline;portConstraint=eastwest;newEdgeStyle={&quot;edgeStyle&quot;:&quot;elbowEdgeStyle&quot;,&quot;elbow&quot;:&quot;vertical&quot;,&quot;curved&quot;:0,&quot;rounded&quot;:0};" parent="R4cRmpyerJcZYyLZYaJI-28" vertex="1">
          <mxGeometry x="45" y="70" width="10" height="560" as="geometry" />
        </mxCell>
        <mxCell id="R4cRmpyerJcZYyLZYaJI-30" value="dispatch" style="html=1;verticalAlign=bottom;startArrow=oval;endArrow=block;startSize=8;edgeStyle=elbowEdgeStyle;elbow=vertical;curved=0;rounded=0;" parent="R4cRmpyerJcZYyLZYaJI-28" target="R4cRmpyerJcZYyLZYaJI-29" edge="1">
          <mxGeometry relative="1" as="geometry">
            <mxPoint x="-15" y="70" as="sourcePoint" />
          </mxGeometry>
        </mxCell>
        <mxCell id="R4cRmpyerJcZYyLZYaJI-31" value="" style="html=1;points=[];perimeter=orthogonalPerimeter;outlineConnect=0;targetShapes=umlLifeline;portConstraint=eastwest;newEdgeStyle={&quot;edgeStyle&quot;:&quot;elbowEdgeStyle&quot;,&quot;elbow&quot;:&quot;vertical&quot;,&quot;curved&quot;:0,&quot;rounded&quot;:0};" parent="R4cRmpyerJcZYyLZYaJI-28" vertex="1">
          <mxGeometry x="50" y="120" width="10" height="80" as="geometry" />
        </mxCell>
        <mxCell id="R4cRmpyerJcZYyLZYaJI-32" value=":Backend" style="shape=umlLifeline;perimeter=lifelinePerimeter;whiteSpace=wrap;html=1;container=0;dropTarget=0;collapsible=0;recursiveResize=0;outlineConnect=0;portConstraint=eastwest;newEdgeStyle={&quot;edgeStyle&quot;:&quot;elbowEdgeStyle&quot;,&quot;elbow&quot;:&quot;vertical&quot;,&quot;curved&quot;:0,&quot;rounded&quot;:0};" parent="1" vertex="1">
          <mxGeometry x="1110" y="30" width="100" height="640" as="geometry" />
        </mxCell>
        <mxCell id="R4cRmpyerJcZYyLZYaJI-33" value="" style="html=1;points=[];perimeter=orthogonalPerimeter;outlineConnect=0;targetShapes=umlLifeline;portConstraint=eastwest;newEdgeStyle={&quot;edgeStyle&quot;:&quot;elbowEdgeStyle&quot;,&quot;elbow&quot;:&quot;vertical&quot;,&quot;curved&quot;:0,&quot;rounded&quot;:0};" parent="R4cRmpyerJcZYyLZYaJI-32" vertex="1">
          <mxGeometry x="45" y="80" width="10" height="560" as="geometry" />
        </mxCell>
        <mxCell id="R4cRmpyerJcZYyLZYaJI-34" value="login" style="html=1;verticalAlign=bottom;endArrow=block;edgeStyle=elbowEdgeStyle;elbow=vertical;curved=0;rounded=0;" parent="1" source="R4cRmpyerJcZYyLZYaJI-29" target="R4cRmpyerJcZYyLZYaJI-33" edge="1">
          <mxGeometry relative="1" as="geometry">
            <mxPoint x="855" y="130" as="sourcePoint" />
            <Array as="points">
              <mxPoint x="840" y="120" />
            </Array>
          </mxGeometry>
        </mxCell>
        <mxCell id="R4cRmpyerJcZYyLZYaJI-35" value="search results" style="html=1;verticalAlign=bottom;endArrow=open;dashed=1;endSize=8;edgeStyle=elbowEdgeStyle;elbow=vertical;curved=0;rounded=0;" parent="1" source="R4cRmpyerJcZYyLZYaJI-33" target="R4cRmpyerJcZYyLZYaJI-29" edge="1">
          <mxGeometry relative="1" as="geometry">
            <mxPoint x="855" y="205" as="targetPoint" />
            <Array as="points">
              <mxPoint x="850" y="280" />
            </Array>
          </mxGeometry>
        </mxCell>
        <mxCell id="R4cRmpyerJcZYyLZYaJI-36" value="token/API Key" style="html=1;verticalAlign=bottom;endArrow=block;edgeStyle=elbowEdgeStyle;elbow=horizontal;curved=0;rounded=0;" parent="1" source="R4cRmpyerJcZYyLZYaJI-33" target="R4cRmpyerJcZYyLZYaJI-31" edge="1">
          <mxGeometry relative="1" as="geometry">
            <mxPoint x="835" y="160" as="sourcePoint" />
            <Array as="points">
              <mxPoint x="850" y="160" />
            </Array>
          </mxGeometry>
        </mxCell>
        <mxCell id="R4cRmpyerJcZYyLZYaJI-37" value="search word" style="html=1;verticalAlign=bottom;endArrow=open;dashed=1;endSize=8;edgeStyle=elbowEdgeStyle;elbow=vertical;curved=0;rounded=0;" parent="1" source="R4cRmpyerJcZYyLZYaJI-31" target="R4cRmpyerJcZYyLZYaJI-33" edge="1">
          <mxGeometry relative="1" as="geometry">
            <mxPoint x="835" y="235" as="targetPoint" />
            <Array as="points">
              <mxPoint x="840" y="230" />
            </Array>
          </mxGeometry>
        </mxCell>
        <mxCell id="R4cRmpyerJcZYyLZYaJI-38" value="search or fetch documentation" style="html=1;verticalAlign=bottom;endArrow=open;dashed=1;endSize=8;edgeStyle=elbowEdgeStyle;elbow=vertical;curved=0;rounded=0;" parent="1" edge="1">
          <mxGeometry relative="1" as="geometry">
            <mxPoint x="1155" y="330" as="targetPoint" />
            <Array as="points">
              <mxPoint x="840" y="330" />
            </Array>
            <mxPoint x="760" y="330" as="sourcePoint" />
          </mxGeometry>
        </mxCell>
        <mxCell id="R4cRmpyerJcZYyLZYaJI-39" value="Documentaion data" style="html=1;verticalAlign=bottom;endArrow=open;dashed=1;endSize=8;edgeStyle=elbowEdgeStyle;elbow=vertical;curved=0;rounded=0;" parent="1" edge="1">
          <mxGeometry relative="1" as="geometry">
            <mxPoint x="754" y="390" as="targetPoint" />
            <Array as="points">
              <mxPoint x="849" y="390" />
            </Array>
            <mxPoint x="1154" y="390" as="sourcePoint" />
          </mxGeometry>
        </mxCell>
        <mxCell id="R4cRmpyerJcZYyLZYaJI-40" value="Analytics Requests" style="html=1;verticalAlign=bottom;endArrow=open;dashed=1;endSize=8;edgeStyle=elbowEdgeStyle;elbow=vertical;curved=0;rounded=0;" parent="1" edge="1">
          <mxGeometry relative="1" as="geometry">
            <mxPoint x="1155" y="450" as="targetPoint" />
            <Array as="points">
              <mxPoint x="840" y="450" />
            </Array>
            <mxPoint x="760" y="450" as="sourcePoint" />
          </mxGeometry>
        </mxCell>
        <mxCell id="R4cRmpyerJcZYyLZYaJI-41" value="Analytics results&amp;nbsp;" style="html=1;verticalAlign=bottom;endArrow=open;dashed=1;endSize=8;edgeStyle=elbowEdgeStyle;elbow=vertical;curved=0;rounded=0;" parent="1" edge="1">
          <mxGeometry relative="1" as="geometry">
            <mxPoint x="760" y="510" as="targetPoint" />
            <Array as="points">
              <mxPoint x="855" y="510" />
            </Array>
            <mxPoint x="1160" y="510" as="sourcePoint" />
          </mxGeometry>
        </mxCell>
        <mxCell id="R4cRmpyerJcZYyLZYaJI-42" value="Billing Requests" style="html=1;verticalAlign=bottom;endArrow=open;dashed=1;endSize=8;edgeStyle=elbowEdgeStyle;elbow=vertical;curved=0;rounded=0;" parent="1" edge="1">
          <mxGeometry relative="1" as="geometry">
            <mxPoint x="1155" y="560" as="targetPoint" />
            <Array as="points">
              <mxPoint x="840" y="560" />
            </Array>
            <mxPoint x="760" y="560" as="sourcePoint" />
          </mxGeometry>
        </mxCell>
        <mxCell id="R4cRmpyerJcZYyLZYaJI-43" value="Billing upgrade or info" style="html=1;verticalAlign=bottom;endArrow=open;dashed=1;endSize=8;edgeStyle=elbowEdgeStyle;elbow=vertical;curved=0;rounded=0;" parent="1" edge="1">
          <mxGeometry relative="1" as="geometry">
            <mxPoint x="760" y="620" as="targetPoint" />
            <Array as="points">
              <mxPoint x="855" y="620" />
            </Array>
            <mxPoint x="1160" y="620" as="sourcePoint" />
          </mxGeometry>
        </mxCell>
        <mxCell id="9Xh41CE2SBmJAwipE2NW-1" value="developer account" style="html=1;verticalAlign=bottom;endArrow=block;edgeStyle=elbowEdgeStyle;elbow=horizontal;curved=0;rounded=0;" parent="1" edge="1">
          <mxGeometry x="0.0025" relative="1" as="geometry">
            <mxPoint x="605" y="220" as="sourcePoint" />
            <Array as="points">
              <mxPoint x="300" y="220" />
            </Array>
            <mxPoint x="210" y="220" as="targetPoint" />
            <mxPoint as="offset" />
          </mxGeometry>
        </mxCell>
      </root>
    </mxGraphModel>
  </diagram>
</mxfile>
